<svg width="50" height="50" viewBox="0 0 50 50" fill="none" xmlns="http://www.w3.org/2000/svg">
<path fill-rule="evenodd" clip-rule="evenodd" d="M23.3333 5.00004C23.3333 4.07957 24.0795 3.33337 25 3.33337C36.9661 3.33337 46.6666 13.0339 46.6666 25C46.6666 36.9662 36.9661 46.6667 25 46.6667C13.0338 46.6667 3.33331 36.9662 3.33331 25C3.33331 24.0796 4.07951 23.3334 4.99998 23.3334C5.92045 23.3334 6.66665 24.0796 6.66665 25C6.66665 35.1253 14.8748 43.3334 25 43.3334C35.1252 43.3334 43.3333 35.1253 43.3333 25C43.3333 14.8748 35.1252 6.66671 25 6.66671C24.0795 6.66671 23.3333 5.92052 23.3333 5.00004Z" fill="#9B51E0"/>
</svg>
